HIERARCHY
ROOT Hips
{
 OFFSET 0.000000 0.000000 0.000000
 CHANNELS 6 Xposition Yposition Zposition Yrotation Xrotation Zrotation
 JOINT Chest
 {
  OFFSET 0.000000 9.585900 0.002600
  CHANNELS 3 Yrotation Xrotation Zrotation
  JOINT Chest2
  {
   OFFSET 0.000000 9.601200 -0.005300
   CHANNELS 3 Yrotation Xrotation Zrotation
   JOINT Chest3
   {
    OFFSET 0.000000 9.561800 0.000000
    CHANNELS 3 Yrotation Xrotation Zrotation
    JOINT Chest4
    {
     OFFSET 0.000000 9.552100 0.000000
     CHANNELS 3 Yrotation Xrotation Zrotation
     JOINT Neck
     {
      OFFSET 0.000000 14.453000 0.000000
      CHANNELS 3 Yrotation Xrotation Zrotation
      JOINT Head
      {
       OFFSET 0.000000 8.936500 -0.011300
       CHANNELS 3 Yrotation Xrotation Zrotation
       End Site
       {
        OFFSET 0.000000 17.073600 -0.006000
       }
      }
     }
     JOINT RightCollar
     {
      OFFSET -2.921100 9.558500 0.000000
      CHANNELS 3 Yrotation Xrotation Zrotation
      JOINT RightShoulder
      {
       OFFSET -13.519700 0.000000 0.000000
       CHANNELS 3 Yrotation Xrotation Zrotation
       JOINT RightElbow
       {
        OFFSET 0.000000 -29.696600 0.000000
        CHANNELS 3 Yrotation Xrotation Zrotation
        JOINT RightWrist
        {
         OFFSET 0.000000 -24.004700 0.000000
         CHANNELS 3 Yrotation Xrotation Zrotation
         End Site
         {
          OFFSET 0.000000 -17.728500 0.000000
         }
        }
       }
      }
     }
     JOINT LeftCollar
     {
      OFFSET 2.921100 9.558500 0.000000
      CHANNELS 3 Yrotation Xrotation Zrotation
      JOINT LeftShoulder
      {
       OFFSET 13.519700 0.000000 0.000000
       CHANNELS 3 Yrotation Xrotation Zrotation
       JOINT LeftElbow
       {
        OFFSET 0.000000 -29.696600 0.000000
        CHANNELS 3 Yrotation Xrotation Zrotation
        JOINT LeftWrist
        {
         OFFSET 0.000000 -24.004700 0.000000
         CHANNELS 3 Yrotation Xrotation Zrotation
         End Site
         {
          OFFSET 0.000000 -17.728500 0.000000
         }
        }
       }
      }
     }
    }
   }
  }
 }
 JOINT RightHip
 {
  OFFSET -7.771700 -0.012900 -0.001300
  CHANNELS 3 Yrotation Xrotation Zrotation
  JOINT RightKnee
  {
   OFFSET 0.000000 -40.869800 0.001200
   CHANNELS 3 Yrotation Xrotation Zrotation
   JOINT RightAnkle
   {
    OFFSET 0.000000 -39.717900 0.002100
    CHANNELS 3 Yrotation Xrotation Zrotation
    JOINT RightToe
    {
     OFFSET 0.000000 -4.965400 11.033500
     CHANNELS 3 Yrotation Xrotation Zrotation
     End Site
     {
      OFFSET 0.000000 -1.423100 5.872300
     }
    }
   }
  }
 }
 JOINT LeftHip
 {
  OFFSET 7.771700 -0.012900 -0.001300
  CHANNELS 3 Yrotation Xrotation Zrotation
  JOINT LeftKnee
  {
   OFFSET 0.000000 -40.869800 0.001200
   CHANNELS 3 Yrotation Xrotation Zrotation
   JOINT LeftAnkle
   {
    OFFSET 0.000000 -39.717900 0.002100
    CHANNELS 3 Yrotation Xrotation Zrotation
    JOINT LeftToe
    {
     OFFSET 0.000000 -4.965400 11.033500
     CHANNELS 3 Yrotation Xrotation Zrotation
     End Site
     {
      OFFSET 0.000000 -1.423100 5.872300
     }
    }
   }
  }
 }
}
MOTION
Frames: 15
Frame Time: 0.008333
0.000000 85.388000 0.000000 0.000000 -5.767877 0.000000 0.000000 11.653817 0.000000 0.000000 -5.885947 0.000000 0.000000 -0.000000 0.000000 0.000000 -0.000000 0.000000 0.000000 12.528835 0.000000 0.000000 0.711642 0.000000 0.000000 -0.000000 0.000000 0.000000 0.000000 -90.000000 0.000000 -2.309062 0.000000 0.000000 2.309062 0.000000 0.000000 -0.000000 0.000000 0.000000 -0.000000 90.000000 0.000000 -2.309062 0.000000 0.000000 2.309062 0.000000 0.000000 8.520406 0.000000 0.000000 1.905762 0.000000 -0.000000 -4.658285 0.000000 0.000000 -0.000000 0.000000 0.000000 8.520406 0.000000 0.000000 1.905762 0.000000 -0.000000 -4.658285 0.000000 0.000000 -0.000000 0.000000
-15.241621 54.606898 27.204631 -174.670465 -32.787367 -10.849117 -0.634829 13.276712 5.131645 -0.296052 7.774117 2.087853 -0.338611 9.701570 2.599081 -0.302085 7.749471 2.079869 2.307469 18.970283 -2.922952 3.110832 -5.636276 -3.637811 0.667079 2.880944 -2.594756 -17.471320 -3.626579 7.297122 40.743691 -79.016847 -24.355086 10.782314 -10.712005 -18.772676 -8.950734 2.825830 -3.347772 4.412234 -1.331184 -3.129736 -69.561337 -75.885854 77.932706 13.901174 -15.044485 -2.736323 -17.294824 -33.205622 1.598684 29.290647 87.358978 25.437869 0.608547 -18.051907 2.841618 -0.053959 0.450624 0.001647 -15.214412 -45.035254 12.884151 170.337053 80.243183 164.113322 -2.646687 -15.824617 3.144829 -0.522056 -2.191975 -0.211269
-15.244792 54.625733 27.205067 -174.646404 -32.777818 -10.849647 -0.625500 13.289625 5.152204 -0.300583 7.778948 2.086972 -0.358133 9.691799 2.589179 -0.274098 7.813361 2.101495 2.264692 18.905839 -2.898569 3.079587 -5.673445 -3.610979 0.633884 2.806535 -2.630132 -17.478819 -3.611047 7.280880 41.097539 -78.949870 -24.672947 10.834216 -10.631491 -18.657191 -8.931885 2.781268 -3.330366 4.370391 -1.338682 -3.085042 -69.468363 -75.941650 77.811601 13.853854 -14.954126 -2.772229 -17.306098 -33.217113 1.590277 29.393393 87.369778 25.528904 0.594274 -18.066841 2.850683 -0.079629 0.445424 -0.005742 -15.219277 -45.044204 12.883536 170.238536 80.246631 164.004194 -2.672539 -15.805109 3.158758 -0.525585 -2.202769 -0.213058
-15.247201 54.647652 27.205175 -174.626384 -32.770105 -10.850491 -0.620676 13.299565 5.167179 -0.311262 7.775401 2.079517 -0.326950 9.735234 2.610852 -0.308903 7.772972 2.084130 2.250728 18.891895 -2.864002 3.041650 -5.712098 -3.570096 0.649245 2.825138 -2.673378 -17.515899 -3.612713 7.302244 41.545194 -78.874303 -25.079359 10.889140 -10.535557 -18.570209 -8.894100 2.792417 -3.318708 4.340136 -1.350129 -3.031264 -69.207457 -75.955584 77.507351 13.835975 -14.923595 -2.805305 -17.308387 -33.227179 1.591022 29.363377 87.383767 25.478801 0.584323 -18.079741 2.874993 -0.078820 0.443924 -0.011035 -15.220199 -45.049565 12.884361 170.152784 80.252313 163.906399 -2.674426 -15.789003 3.156696 -0.550507 -2.211968 -0.202359
-15.253855 54.670138 27.205917 -174.588097 -32.752981 -10.831254 -0.656111 13.293151 5.135112 -0.282613 7.801303 2.099786 -0.328131 9.740976 2.607421 -0.332927 7.750741 2.077036 2.233359 18.871604 -2.832618 2.998601 -5.757755 -3.528346 0.663975 2.843263 -2.715330 -17.561524 -3.598433 7.296250 41.901098 -78.830024 -25.379399 10.938305 -10.432628 -18.504767 -8.886840 2.785471 -3.314965 4.347489 -1.346121 -2.956762 -68.966800 -75.985414 77.226139 13.824035 -14.904069 -2.848141 -17.306784 -33.256760 1.547579 29.582757 87.401967 25.684054 0.583601 -18.095846 2.892638 -0.094073 0.440387 -0.014929 -15.204991 -45.070032 12.839985 170.050036 80.263691 163.794300 -2.687823 -15.766717 3.169156 -0.540938 -2.220468 -0.213739
-15.258691 54.693666 27.206457 -174.567922 -32.738345 -10.808200 -0.659537 13.300959 5.126644 -0.270083 7.809299 2.102429 -0.350438 9.725302 2.595322 -0.302457 7.788334 2.082169 2.184938 18.807509 -2.806281 2.952640 -5.808984 -3.485863 0.670554 2.858456 -2.784300 -17.627812 -3.613879 7.325796 42.057302 -78.798005 -25.483486 10.973961 -10.328835 -18.451834 -8.909825 2.741132 -3.305881 4.345618 -1.348180 -2.915296 -68.810948 -75.994829 77.051866 13.807835 -14.882419 -2.894560 -17.297749 -33.284654 1.521434 29.644738 87.422993 25.732166 0.553883 -18.113825 2.907759 -0.087566 0.441820 -0.011177 -15.172844 -45.076237 12.816682 170.068165 80.289784 163.800529 -2.730582 -15.776471 3.184871 -0.518361 -2.197826 -0.205098
-15.260885 54.717629 27.206581 -174.548825 -32.724329 -10.795162 -0.623549 13.323047 5.157727 -0.300452 7.791962 2.077920 -0.362965 9.718136 2.588809 -0.301765 7.790258 2.080949 2.164064 18.778108 -2.784014 2.901869 -5.870029 -3.434592 0.679693 2.875851 -2.812982 -17.659646 -3.593469 7.277960 41.920454 -78.821208 -25.302241 10.986041 -10.302149 -18.449149 -8.844034 2.774614 -3.303483 4.265680 -1.393019 -2.899292 -68.712419 -75.984992 76.952518 13.781639 -14.862069 -2.925262 -17.292224 -33.307945 1.506956 29.645580 87.443150 25.720703 0.534684 -18.128182 2.924269 -0.083686 0.440556 -0.011469 -15.167823 -45.090436 12.800283 170.014520 80.299675 163.737878 -2.732687 -15.754641 3.191785 -0.532428 -2.209620 -0.207494
-15.262537 54.741098 27.206193 -174.531966 -32.710697 -10.779016 -0.618031 13.329033 5.155525 -0.306042 7.787992 2.072657 -0.326547 9.748676 2.594829 -0.326034 7.766585 2.076000 2.132508 18.746533 -2.772840 2.842508 -5.951350 -3.367598 0.677859 2.883049 -2.833876 -17.690108 -3.600821 7.283057 41.671115 -78.810599 -25.026152 10.985684 -10.179420 -18.378998 -8.834766 2.774205 -3.299705 4.248643 -1.409380 -2.843137 -68.656877 -76.027427 76.872328 13.739301 -14.830639 -2.931697 -17.282437 -33.331892 1.485097 29.675189 87.463291 25.744992 0.519702 -18.144889 2.934666 -0.075924 0.443205 -0.007322 -15.157357 -45.092515 12.792123 170.079124 80.324751 163.790176 -2.759348 -15.767297 3.198099 -0.516663 -2.187064 -0.198492
-15.263114 54.763557 27.205592 -174.513934 -32.693591 -10.765392 -0.627956 13.323769 5.142566 -0.311880 7.783127 2.068956 -0.312236 9.767735 2.595668 -0.319271 7.768703 2.075590 2.095604 18.694342 -2.741521 2.792388 -6.029006 -3.322964 0.683151 2.886535 -2.850864 -17.704900 -3.565180 7.201945 41.049987 -78.907128 -24.391364 10.948995 -10.073133 -18.320769 -8.824097 2.771423 -3.298066 4.269486 -1.401191 -2.765147 -68.627041 -76.079580 76.816598 13.720646 -14.813329 -2.966733 -17.278302 -33.359757 1.466508 29.729869 87.484710 25.791099 0.520807 -18.156603 2.942917 -0.078981 0.440185 -0.004273 -15.155419 -45.096599 12.793371 170.163388 80.349587 163.858417 -2.787653 -15.782904 3.205270 -0.493259 -2.162744 -0.196512
-15.262953 54.784764 27.204771 -174.490531 -32.671245 -10.755540 -0.645253 13.314935 5.128084 -0.301300 7.794168 2.072310 -0.320213 9.765081 2.590974 -0.303841 7.802828 2.069475 2.031897 18.564707 -2.675992 2.773627 -6.071879 -3.311761 0.674103 2.846623 -2.850118 -17.700346 -3.531066 7.136423 40.364327 -78.986137 -23.701893 10.908849 -10.010538 -18.297340 -8.816363 2.743307 -3.290271 4.271963 -1.405708 -2.728187 -68.574699 -76.059802 76.798261 13.730477 -14.801858 -3.035598 -17.284950 -33.391591 1.454608 29.801457 87.507265 25.843338 0.541278 -18.166807 2.948448 -0.084338 0.433049 -0.002056 -15.165493 -45.113596 12.794085 170.182396 80.363163 163.861014 -2.799012 -15.776732 3.213757 -0.500520 -2.160030 -0.193132
-15.261835 54.805449 27.202646 -174.465519 -32.651296 -10.750484 -0.621491 13.344335 5.143883 -0.328666 7.769385 2.057662 -0.338199 9.746288 2.586597 -0.303107 7.824654 2.066450 2.003542 18.489668 -2.642184 2.734640 -6.157614 -3.267874 0.687403 2.833241 -2.855420 -17.696097 -3.508959 7.090943 39.952979 -79.048971 -23.299789 10.814981 -9.929551 -18.268745 -8.793224 2.739520 -3.301054 4.286214 -1.406338 -2.688369 -68.612363 -76.060944 76.843727 13.706155 -14.772343 -3.072363 -17.295761 -33.418255 1.444777 29.767767 87.532701 25.801008 0.537400 -18.178191 2.956756 -0.057150 0.428966 -0.003089 -15.177727 -45.132558 12.789469 170.162806 80.367956 163.831925 -2.793348 -15.760626 3.219652 -0.515911 -2.170951 -0.200966
-15.261586 54.825128 27.199690 -174.436307 -32.629534 -10.741290 -0.642106 13.339227 5.127616 -0.314833 7.796359 2.064701 -0.355635 9.733786 2.579101 -0.309699 7.809712 2.064684 1.975950 18.420784 -2.608211 2.696926 -6.245962 -3.221487 0.755149 2.878056 -2.888635 -17.757742 -3.534729 7.115727 39.331534 -79.062993 -22.698233 10.792149 -9.875339 -18.254274 -8.775236 2.749085 -3.323659 4.312160 -1.400454 -2.645067 -68.711070 -76.073997 76.923943 13.653442 -14.731376 -3.072044 -17.308986 -33.446764 1.427374 29.889103 87.553160 25.913632 0.520529 -18.195544 2.966489 -0.071097 0.428790 -0.004219 -15.195087 -45.147217 12.797568 170.204397 80.378909 163.843942 -2.809890 -15.756390 3.244222 -0.515194 -2.170408 -0.213946
-15.261694 54.844777 27.194906 -174.419668 -32.616385 -10.723437 -0.648667 13.340120 5.110036 -0.318986 7.796291 2.063131 -0.350443 9.755786 2.576144 -0.322905 7.787020 2.065946 1.948883 18.341120 -2.574033 2.659792 -6.329506 -3.171246 0.769762 2.878179 -2.894632 -17.759401 -3.530417 7.100431 38.974068 -79.054963 -22.374799 10.777626 -9.806558 -18.248830 -8.760270 2.757318 -3.350788 4.318433 -1.406237 -2.606998 -68.754238 -76.048154 77.018039 13.626162 -14.676813 -3.106437 -17.307137 -33.469949 1.400864 30.164279 87.575488 26.182316 0.509883 -18.214620 2.973430 -0.078568 0.429350 -0.006890 -15.200346 -45.139272 12.813573 170.378680 80.405878 163.981140 -2.848867 -15.788685 3.266040 -0.492383 -2.134701 -0.204858
-15.260761 54.864027 27.189634 -174.407009 -32.602045 -10.709865 -0.612209 13.358304 5.121618 -0.338551 7.782804 2.053310 -0.381764 9.735856 2.570089 -0.322008 7.769394 2.046411 1.940026 18.318502 -2.535488 2.606683 -6.442287 -3.099386 0.781041 2.905789 -2.880165 -17.751667 -3.519828 7.066355 38.944581 -79.054724 -22.384011 10.770265 -9.697908 -18.259095 -8.748390 2.793359 -3.366962 4.323772 -1.408876 -2.565926 -68.823287 -76.019880 77.141400 13.641893 -14.640797 -3.159329 -17.307436 -33.492585 1.377899 30.415460 87.593697 26.431365 0.510673 -18.231359 2.975929 -0.082344 0.428384 -0.011377 -15.200867 -45.141897 12.810370 170.459111 80.421633 164.048032 -2.849502 -15.803715 3.262307 -0.493522 -2.119203 -0.195826
-15.264372 54.880456 27.186703 -174.345711 -32.559441 -10.693914 -0.653460 13.327782 5.086922 -0.346014 7.768529 2.047094 -0.390106 9.738488 2.567137 -0.330330 7.734734 2.035541 1.928730 18.318739 -2.500318 2.550394 -6.543408 -3.025285 0.807655 2.978316 -2.869365 -17.768434 -3.531705 7.050211 39.153786 -79.034475 -22.631674 10.787936 -9.563940 -18.277975 -8.747509 2.844394 -3.374424 4.355918 -1.387480 -2.540475 -68.949121 -76.007719 77.292209 13.580450 -14.548194 -3.148499 -17.344260 -33.543339 1.326025 30.666315 87.618718 26.675524 0.517597 -18.255154 2.979826 -0.077828 0.428774 -0.014728 -15.226957 -45.176551 12.773710 170.522230 80.443427 164.094707 -2.857557 -15.816052 3.271053 -0.484274 -2.094852 -0.203214
